<?xml version="1.0" encoding="UTF-8"?>
<svg id="katman_1" data-name="katman 1" xmlns="http://www.w3.org/2000/svg" xmlns:xlink="http://www.w3.org/1999/xlink" viewBox="0 0 1254 1254">
  <defs>
    <style>
      .cls-1 {
        fill: #05b8ef;
      }

      .cls-2 {
        fill: #2172f7;
      }

      .cls-3 {
        fill: #07aff0;
      }

      .cls-4 {
        fill: #a3a9b4;
      }

      .cls-5 {
        fill: #01c8e5;
      }

      .cls-6 {
        fill: #099ff0;
      }

      .cls-7 {
        fill: #02bce4;
      }

      .cls-8 {
        fill: #1880f6;
      }

      .cls-9 {
        fill: #04b5eb;
      }

      .cls-10 {
        fill: url(#Adsız_degrade_6);
      }

      .cls-11 {
        fill: #02bdeb;
      }

      .cls-12 {
        fill: #01c1e3;
      }

      .cls-13 {
        fill: #0ba2f0;
      }

      .cls-14 {
        fill: #06a8e7;
      }

      .cls-15 {
        fill: #08a7ee;
      }

      .cls-16 {
        fill: #01070f;
      }

      .cls-17 {
        fill: #a0a6b1;
      }

      .cls-18 {
        fill: #089cde;
      }

      .cls-19 {
        fill: #05aeef;
      }

      .cls-20 {
        fill: #2961f7;
      }

      .cls-21 {
        fill: #a1a7b2;
      }

      .cls-22 {
        fill: #03a8ed;
      }

      .cls-23 {
        fill: #a1a8b2;
      }

      .cls-24 {
        fill: #0d92f3;
      }

      .cls-25 {
        fill: #0aa6ee;
      }

      .cls-26 {
        fill: #9ea6b1;
      }

      .cls-27 {
        fill: #07a8ef;
      }

      .cls-28 {
        fill: #03b7ec;
      }

      .cls-29 {
        fill: #02baec;
      }

      .cls-30 {
        fill: #03c4eb;
      }

      .cls-31 {
        fill: #a1a8b3;
      }

      .cls-32 {
        fill: #02bae9;
      }

      .cls-33 {
        fill: #00d4e6;
      }

      .cls-34 {
        fill: #1091f3;
      }

      .cls-35 {
        fill: #949ca8;
      }

      .cls-36 {
        fill: url(#Adsız_degrade_6-4);
      }

      .cls-37 {
        fill: #0799ec;
      }

      .cls-38 {
        fill: #02b6ec;
      }

      .cls-39 {
        fill: #9ba3ae;
      }

      .cls-40 {
        fill: #00cae8;
      }

      .cls-41 {
        fill: #a2a9b2;
      }

      .cls-42 {
        fill: #9aa2ad;
      }

      .cls-43 {
        fill: #04aae6;
      }

      .cls-44 {
        fill: url(#Adsız_degrade_6-3);
      }

      .cls-45 {
        fill: #00c7e9;
      }

      .cls-46 {
        fill: #03b9eb;
      }

      .cls-47 {
        fill: #9fa7b2;
      }

      .cls-48 {
        fill: #9fa5b0;
      }

      .cls-49 {
        fill: url(#Adsız_degrade_5);
      }

      .cls-50 {
        fill: url(#Adsız_degrade_6-2);
      }

      .cls-51 {
        fill: #a2a8b3;
      }

      .cls-52 {
        fill: #1e7bf5;
      }

      .cls-53 {
        fill: #9ea5b0;
      }

      .cls-54 {
        fill: #158bf4;
      }

      .cls-55 {
        fill: #a0a8b3;
      }

      .cls-56 {
        fill: #01c8e8;
      }

      .cls-57 {
        fill: #00c6e7;
      }

      .cls-58 {
        fill: #236ef8;
      }

      .cls-59 {
        fill: #0f92f4;
      }

      .cls-60 {
        fill: #1785f5;
      }
    </style>
    <linearGradient id="Adsız_degrade_6" data-name="Adsız degrade 6" x1="567.65" y1="5789.47" x2="478.93" y2="5913.41" gradientTransform="translate(435 -4879)" gradientUnits="userSpaceOnUse">
      <stop offset="0" stop-color="#04b4ed"/>
      <stop offset="1" stop-color="#1d75f4"/>
    </linearGradient>
    <linearGradient id="Adsız_degrade_5" data-name="Adsız degrade 5" x1="703.42" y1="5759.26" x2="602.53" y2="5905.7" gradientTransform="translate(435 -4879)" gradientUnits="userSpaceOnUse">
      <stop offset="0" stop-color="#00d6e5"/>
      <stop offset="1" stop-color="#0c93f3"/>
    </linearGradient>
    <linearGradient id="Adsız_degrade_6-2" data-name="Adsız degrade 6" x1="664.94" y1="944.09" x2="894.93" y2="944.09" gradientTransform="matrix(1,0,0,1,0,0)" xlink:href="#Adsız_degrade_6"/>
    <linearGradient id="Adsız_degrade_6-3" data-name="Adsız degrade 6" x1="381.14" y1="943.79" x2="624.07" y2="943.79" gradientTransform="matrix(1,0,0,1,0,0)" xlink:href="#Adsız_degrade_6"/>
    <linearGradient id="Adsız_degrade_6-4" data-name="Adsız degrade 6" x1="111.96" y1="944.08" x2="379.86" y2="944.08" gradientTransform="matrix(1,0,0,1,0,0)" xlink:href="#Adsız_degrade_6"/>
  </defs>
  <path class="cls-4" d="M362.99,1123.98l-.19,48.37c-2.61.86-6.81,1.08-8.71-.35l-25.69-33.42-.48,33.63c-2.71.89-5.58.95-8.57-.07l-.08-48.53,8.37.1,26.18,34.11.51-34.08c2.83-.29,5.14-.52,8.65.23Z"/>
  <path class="cls-55" d="M677.53,1172.1c-1.84.94-6.42,1.55-8.18-.04l-26.26-33.75-.53,34.14c-3.12.55-5.37.52-8.46-.08l-.22-48.39c2.94-.87,5.73-.69,8.85-.16l25.98,33.95.41-34.18,8.55-.03-.15,48.54Z"/>
  <path class="cls-21" d="M219.7,1153.75l-12.63-.31c-.77-2.82-.4-6.17.97-7.38l20.23-.09c0,5.05,1.35,11.75-.33,16.95-4.41,7.75-13.71,10.5-22.16,10.44-15.42-.11-26.57-12.5-25.06-27.71.62-6.22,2.75-12.15,7.47-16.31,11.27-9.93,31.12-9.25,39.34,3.81l-6.78,4.6c-5.71-7.11-16.12-9.8-23.96-4.16-8.91,6.4-9.46,20.59-1.26,27.79,6.9,6.05,17.28,4.91,23.71-1.07,1.35-1.58.86-5.05.46-6.57Z"/>
  <path class="cls-42" d="M801.17,1151.49l-24.13-.04v13.11s27-.1,27-.1l-.07,8.28-35.87.28.03-49.49,36.06-.04-.44,7.6-26.4.11-.25,12.46,23.15.21c1.08,1.33,1.3,3.79.91,7.6Z"/>
  <path class="cls-41" d="M289.01,1151.53l-23.62.1c-.79,4.33-.88,8.5,0,13.01l26.67.06-.04,7.97-35.81.15.06-49.46,35.35.19c.39,2.77.36,4.89-.05,7.66l-26.27.05c-.76,4.81-.57,8.36.11,12.43l23.08-.19c.68,1.83.89,3.73.53,8.04Z"/>
  <path class="cls-51" d="M1036.65,1171.78c-3.07,1.52-7.51,1.62-10.18.34l-16.44-20.98c-2.74,2.32-5.72,4.19-7.06,6.97l-.79,14.33c-2.54.46-4.79.46-8.37.17l-.12-48.89,8.64-.24.27,23.56,22.58-23.43,10.4.29-20.05,21.15,21.13,26.73Z"/>
  <path class="cls-23" d="M873.62,1171.88c-2.8,1.33-7.53,1.69-9.95.19l-13.43-17.86-13.67,18.45c-3.44.11-6.04.63-9.95-.52l17.91-24.85-17.39-23.42,10.49-.33,12.67,17.38,12.31-17.17c3.6-.3,6.55-.6,9.99.13l-16.95,23.51,17.98,24.5Z"/>
  <path class="cls-26" d="M526.95,1157.42c2.48,1.12,4.33,2.59,6.89,4.71-4.42,7.96-12.67,11.32-21.82,11.35-12.83.04-23.11-8.43-24.87-21.31-1.02-7.45.8-15.54,5.94-21.3,9.95-11.16,30.99-11.45,40.79,2.63-2.01,2.33-3.91,3.81-7.1,5.03-4.46-6.78-11.75-9-18.87-7.11-6.85,1.81-11.36,8.2-11.66,15.85s3.98,14.61,10.03,16.77c7.8,2.79,15.23.73,20.68-6.62Z"/>
  <path class="cls-35" d="M727.23,1171.91c-2.9,1.21-5.84,1.04-8.78.36l-.07-40.79-15.75-.24c-.59-2.75-.61-4.95,0-7.7h41.37s-.01,7.59-.01,7.59l-16.99.18.22,40.6Z"/>
  <path class="cls-48" d="M1119.59,1172.22c-3.54.91-5.64.78-8.76.03l-.18-41.04-16.31-.08.06-7.56,41.52-.1c.43,2.83.38,4.94-.05,7.76l-16.31.3.05,40.69Z"/>
  <path class="cls-39" d="M412.5,1171.84c-3.41,1.76-6.53,1.16-8.84.35v-40.71s-16.01-.39-16.01-.39c-.16-3.43-.15-5.53.36-7.65l41.15.06-.35,7.74-16.34-.06.02,40.64Z"/>
  <path class="cls-53" d="M917.69,1171.86c-3.06,1.45-5.53,1.28-8.65.69l-.15-41.28-15.93-.14v-7.57s41.27-.02,41.27-.02l-.31,7.54-16.23.18v40.59Z"/>
  <path class="cls-31" d="M1069.6,1172.18c-2.9.67-4.88.69-8.63.46l-.07-48.89,8.69-.18v48.61Z"/>
  <path class="cls-47" d="M583.01,1173.52c-15.27.73-26.16-9.85-26.96-24.04s9.02-25.31,23.18-26.72c15.88-1.59,28.55,9.55,28.43,25.6-.11,13.86-9.84,24.46-24.65,25.17ZM582.81,1130.62c-9.36-.5-17.04,6.15-17.63,16.16s6.29,18.12,16.26,18.5c8.93.34,16.94-6.88,17.19-16.95.25-9.95-6.86-17.23-15.83-17.71Z"/>
  <path class="cls-17" d="M149.24,1161.59l-23.07-.31-5.07,10.37c-1.14,2.33-6.8,1.52-9.27.44l20.7-48.58,9.69.32,20.67,48.33c-3.03,1.19-7.21,1.35-9.04-.24-2.5-2.16-2.95-6.18-4.61-10.33ZM137.15,1133.69l-7.8,19.39,16.47.34-8.67-19.74Z"/>
  <g>
    <path class="cls-45" d="M796.19,410.23c-.62,2.64-1.86,4.82-4.26,5.38-1.91.45-5.47-1.62-5.87-4.54-3.34-23.95-10.97-50.47-31.63-62.59-12.07-7.08-25.02-11.1-39.12-12.97-3.25-.43-4.93-2.77-4.95-5.35s1.92-4.61,5.12-5.17c13.05-2.29,25.39-5.88,36.87-12.21,21.72-11.99,30.12-37.76,33.45-62.49.42-3.08,1.51-5.04,3.87-5.72,2.65-.77,6.08.68,6.58,4.06,3.7,24.8,10.97,50.52,32.63,62.89,12.1,6.91,25.13,10.77,38.89,13.32,2.78.52,4.18,2.12,4.74,3.96.73,2.41-.44,5.76-3.41,6.47l-24.11,5.75c-19.74,4.71-37.99,23.1-42.58,42.7l-6.21,26.51Z"/>
    <path class="cls-56" d="M866.11,484.41l-96.81-.2c-6.5-.01-9.87-6.62-9.17-11.86.8-5.96,5.4-9.38,12.08-9.36l96.33.38c6.06.02,9.16,6.85,8.48,11.64-.72,5.05-4.8,9.41-10.92,9.4Z"/>
    <path class="cls-30" d="M868.28,541.57l-100.47-.04c-5.68,0-8.19-6.86-7.86-11.04.32-3.95,3.88-9.53,9.37-9.54l96.83-.23c6.09-.01,9.68,3.61,10.81,8.46,1.1,4.69-1.56,12.4-8.69,12.4Z"/>
    <path class="cls-29" d="M772.84,599.65c-7.09.02-11.27-3.2-12.46-8.48s1.96-12.61,8.69-12.62l99.65-.14c5.82,0,8.98,7.04,8.35,11.64-.7,5.09-4.86,9.38-10.94,9.39l-93.28.2Z"/>
    <path class="cls-11" d="M730.49,488.94c-8.23,2.75-15.88-1.91-18.88-8.56-3.06-6.81-.84-14.82,5.74-19.42,5.47-3.83,14.33-3.75,19.55,2.15,3.56,4.03,5.4,9.16,4.17,13.83-1.26,4.82-4.33,9.9-10.58,12Z"/>
    <path class="cls-1" d="M719.74,517.2c9.17-3.67,17.76,1.17,20.76,9.02,3.01,7.89-1.04,16.45-9.33,19.95-7.14,3.02-16.07-.63-19.5-7.8-3.67-7.69-.65-17.68,8.08-21.17Z"/>
    <path class="cls-19" d="M711.81,582.26c3.38-6.7,9.77-9.73,15.78-8.97,6.59.83,11.97,5.8,13.57,12.89,1.59,7.04-2.63,13.06-7.08,15.79-6.72,4.12-13.37,2.58-18.03-1.02-5.68-4.4-7.6-12.01-4.23-18.69Z"/>
    <path class="cls-37" d="M671.15,623.02c.03,5.08-2.94,8.02-6.55,8.97-3.26.86-7.34-1.43-9.1-5.28-2.39-5.23.6-10.35,4.3-11.68,5.84-2.11,11.31,1.13,11.35,7.99Z"/>
    <path class="cls-7" d="M670.57,318.22c-1.74,5.5-7.31,6.71-11.76,4.35-3.28-1.74-5.39-6.31-3.35-10.99,1.83-4.2,5.89-5.67,9.72-4.68,4.11,1.06,7.18,5.65,5.39,11.32Z"/>
    <path class="cls-14" d="M670.57,488.81c-2.34,5.72-9.33,6.32-13.35,2.68-3.53-3.19-3.6-9.45.84-13.18,2.8-2.35,7.15-2.2,10.03.22,2.08,1.75,4.45,5.46,2.48,10.27Z"/>
    <path class="cls-25" d="M667.69,594.97c-3.56,2.81-7.71,1.84-10.26-.62s-3.78-6.65-1.94-10.05,5.48-5.96,9.91-4.6c3.21.98,5.04,4.04,5.45,6.14.64,3.27-.1,6.71-3.17,9.13Z"/>
    <path class="cls-38" d="M670.93,385.67c-1.15,6.06-7.39,7.92-11.94,5.5-4.11-2.18-6.07-8.25-2.45-12.86,2.49-3.18,6.36-3.97,9.89-2.44,2.7,1.17,5.47,4.68,4.5,9.8Z"/>
    <path class="cls-18" d="M670.97,552.88c.44,5.49-3.35,9.04-7.31,9.28s-7.82-2.34-8.68-7.04c-.91-5.02,1.49-8.91,6.06-9.9,4.04-.88,9.4,1.24,9.92,7.67Z"/>
    <path class="cls-32" d="M670.15,353.74c-2.23,4.59-7.25,4.63-10.29,3.37-4.32-1.79-6.17-6.35-4.36-11.14,1.79-4.76,7.1-5.99,10.92-4.29s6.21,6.94,3.73,12.05Z"/>
    <path class="cls-22" d="M670.05,524.2c-2.81,5.66-9.95,4.58-12.9,1.44-3.89-4.13-3.04-10.52,1.86-13.48,3.25-1.96,6.88-.97,9.27,1.01,2.59,2.15,4,6.54,1.78,11.02Z"/>
    <path class="cls-5" d="M660.44,240.1c4.67-1.61,9.18,1.27,10.27,4.98,1.28,4.35-.41,9.15-4.38,10.63s-8.88-.31-10.54-3.67c-2.33-4.71-.63-10.12,4.65-11.94Z"/>
    <path class="cls-43" d="M670.93,452.74c-.85,5.79-5.74,7.94-10.07,6.81-3.87-1.01-6.75-4.74-5.89-9.74.57-3.34,4.26-6.7,8.6-6.46,4.05.23,8.26,3.28,7.36,9.39Z"/>
    <path class="cls-9" d="M667.7,424.65c-4.55,3.31-10.06.59-11.75-2.5-2.88-5.26-.5-10.82,5.01-12.55,3.95-1.24,7.67,1.37,9.04,3.74,1.95,3.36,1.45,8.58-2.31,11.32Z"/>
    <path class="cls-12" d="M658.99,274.54c4.19-2.33,9.34-.81,11.38,3.45,1.64,3.42.94,8.13-3.62,10.96-2.86,1.77-7.41,1.13-10-2.03-3.19-3.88-2.51-9.74,2.23-12.38Z"/>
    <g>
      <g>
        <path class="cls-13" d="M535.19,659.73l54.56-.17c3.67-.01,6.81-2.24,6.81-5.98v-24.91c.01-2.75,4.23-5.35,6.87-6.06s6.42,1.91,6.43,4.66l.16,29.4c.05,9.25-7.77,17.06-17.23,17.07l-62.82.02c-9.27-1.78-14.85-9.34-14.86-18.51l-.06-55.45c-.01-9.61,5.94-19.53,16.43-19.59l64.27-.37c10.09,2.66,15.56,11.2,14.41,21.36-.33,2.96-1.1,6.2-4.5,7.28-4.68,1.49-9.21-2.47-9.38-7.34-.15-4.16-2.67-6.75-6.72-6.76l-53.59-.13c-3.4,0-6.69,1.75-6.7,5.64l-.12,54.77c0,2.93,2.58,5.07,6.05,5.06Z"/>
        <path class="cls-3" d="M555.12,644.22l-13.23-12.84c-3.35-3.25-3.53-6.83-1.3-9.74,2.57-3.37,6.95-3.91,10.12-.58,2.64,2.77,5.31,6.24,8.91,7.54l21.88-20.64c3.24-3.06,10.94,5.69,7.69,9.24l-24.38,26.53c-2.47,2.69-6.55,3.54-9.69.5Z"/>
      </g>
      <g>
        <path class="cls-52" d="M489.62,416.22l-34.3.16-3.64.21c-.17,4.4-1.2-3.66,2.13-.4l-.12,74.57-.69,16.37,74.13-.1.09-12.96c.05-7.73,6.85-11.71,14.12-11.64l46.38.43c9.85.09,13.19,16.52,10.01,25.04-1.11,2.98-4.55,3.98-7.15,3.79-1.96-.14-5.62-1.03-5.86-3.85l-.96-10.94-42.83.22.25,35.31,42.34.24,2.37-8.2c2.41-3.52,8.83-3.8,11.32-.82,1.96,2.34,1.03,6.17,1.31,8.97.81,8.28-5.22,14.47-13.32,14.44l-46.01-.14c-6.37-.02-11.55-5.04-12.13-11.22l-.18-13.93-73.7.05-.11,87.04c0,5.93,3.9,9.98,9.72,10.06l36.02.51c4.13.06,4.98,12.67.78,12.77l-38.5.92c-11.6.28-21.83-9.78-21.88-21.64l-.41-95.29-.08-110.49v-47.99c-.01-1.86,1.11-2.35,1.52-2.96l2.99,1.04c-.31,17.87-.05,35.63.79,53.26,5.52-7.05,21.67-7.88,23.85,2.24l20.9.46c2.66.65,2.84,2.45.87,4.46Z"/>
        <path class="cls-54" d="M489.62,416.22c.21-.72-.38-1.59-1.49-1.61l-25.68-.41c2.02-2.41,2.12-6.35.16-6.82-3.9-.93-9.32-1.23-12.56.14-2.47,2.23-4.58,4.86-8.09,6.12l-.18,103.28c-.09.41-.81.99-1.4.97l-.15-163.15c1.6-2.4,3.93-3.5,6.8-3.15,2.31.28,5.94,1.99,5.96,5.13l.22,44.86h73.9s.17-13.92.17-13.92c.05-4.36,5.14-10.22,10.11-10.21l50.7.14c5.6.02,10.41,6.39,10.32,11.4l-.25,13.58c-.06,3.18-4.99,4.72-7.51,4.48-8.62-.81-4.77-8.42-7.66-15.7l-42.1-.05-.09,35.16,40.07.45c4.63.05,1.91-7.91,8.96-10.01,2.35-.7,7.1-.6,8.04,2.61,1.03,3.51,1.01,7.65.34,11.31-.94,5.16-5.91,9.75-11.35,9.77l-46.45.19c-7.53.03-13.32-5-13.38-12.72l-.09-11.66-37.31-.2Z"/>
        <path class="cls-54" d="M455.33,416.38c-.49,0-1.04-.04-1.51-.18-.75-.23-1.56.16-1.56,1.37l-.09,77.86c-.55.08-1.33-.45-1.39-.91v-81.2c2.56-.92,4.32,1.29,4.55,3.06Z"/>
      </g>
      <g>
        <path class="cls-59" d="M542.05,336.05c-24.27.35-48.58.27-72.93-.26.5-3.63,3.06-5.24,7.69-4.83,14.11,1.88,15.27-.69,3.49-7.69-5.17-15.83-20.85-31.6-34.11-41.33-4.37-1.14-5.77-3.18-4.18-6.14-4.48-5.17-2.22-20.74,7.04-21.17l22-.03c.45-.22-6.39-7.1-6.85-7.29-1.47-.61-31.69-2.38-29.46,3.32l-.14,21.26-3,2.04c1.32,1.47,1.35,3.21-.32,3.56-5.9,1.21-6.04-16.49-4.49-21.1.11-9.02-8.66,13.98-6.88,16.45-1.39,1.07-2.72,1.06-3.81-.28-1.15-1.41-.04-32.2.3-36.28,1.85-5.23,6.26-8.53,11.97-8.52l40.29.05c3.62,0,6.63,2.27,8.72,4.73l9.78,11.55,54.78.36c6.04.04,11.28,5.93,11.3,12.02l.18,66.87c.02,6.97-5.27,11.34-11.34,12.69Z"/>
        <path class="cls-8" d="M431.59,273.94c3.02-.58,7.8.29,10.41,1.86.83,2.14,4.4,2.57,5.89,3.7l8.37,7.16,17.75,17.93c4.79,4.84,5.92,11,8.63,16.92,2.8,2.74,8.38,4.9,9.65,9.38,1.61,5.68-11.36,1.01-22.28,4.17l72.03.98-4.53,1.01-65.79-.5-44.65-.38c-7.33-.06-11.71-7.37-11.74-14.13l-.17-49.38-.35-32.97c-.02-1.71,1.24-2.53,1.55-3.39l.61,36.48c1.59-7.45,1.28-14.75,6.11-20.46.75-.74,4.07-.9,5.05-.41,3.18,3.33.67,8.08.58,11.64-.11,4.2,1.8,7.75,1.2,11.88,1.16.08,1.62-.91,1.66-1.49Z"/>
        <path class="cls-16" d="M442,275.8c-1.53.72-4.24,2.36-6.48,1.35-1.24-.56-2.53-1.95-3.93-3.22l.13-22.29c.01-2.66.24-4.76,1.75-6.06,1.33-1.14,3.02-1.64,5.27-1.6l26.68.39,9.7,10.02c.83.86.62,1.52.36,1.92-.36.55-1.31,1.29-2.39,1.29l-22.38-.06c-9.83-.03-6.11,8.66-8.72,18.27Z"/>
      </g>
    </g>
    <g>
      <path class="cls-33" d="M1011.14,599.98c-3.61,2.18-4.37-.93-4.46-4.49l-.33-151.51c-2.03,13.6-14.47,10.78-18.46-.84-4.73-6.4-10.3-11.92-16.73-16.56-2.09-7.59-4.04-15.28-5.84-23.09,1.36-4.75,1.11-9.05-.74-12.89-.44,11.84-1.88,23.49-4.32,34.95l.15,151.6c-.91,3.87-2.47,5.97-4.68,6.31l-.05-158.39-.36-158.28c-.04-15.44-9.39-29.51-22.38-36.92l-85.64-48.89-60.08-34.04c-9.01-5.1-13.08-14.68-13.01-24.85l.22-36.82c.01-2.02,2.43-3.92,3.65-4.46,1.6-.71,3.55-.3,5.61.86l71.69,40.34,53.5,30.25,60.86,34.71c24.46,13.95,41.82,37.08,41.92,66.34l.63,195.43.32,41.82c-2.65,4.18-.51,8.25-.44,12.5l.45,26.6-1.41,6.01.23,16.35c.09,6.66,2.39,12.96-.46,19.5l.16,28.46Z"/>
      <path class="cls-40" d="M1011.14,599.98c.94,3.29-.74,6.88-1.25,10.17-2.58,1.54-4.36.28-5.33-3.76-1.87,4.53-1.96,6.33,3.3,4.6l.65,2.34c-.23,5.97-3.57,11.27-6.12,16.4-2.48,1.67-4.76-.4-6.86-6.21-9.35-6.9-14.27-11.78-16.38-23.44-8.66-3.88-15.54-10.76-13.27-20.85l-5.03,5.5c-.13,8.97-7.79,8.39-5.1-.07l-.03-1.2c1.84-.77,1.69-1.93,1.69-4.5l-.12-153.8,2.09-9.31,1.52-16.6,1.46-19.04c4.25,2,3.68,6.54,4.94,9.22,2.13,4.52,2.72,7.15,1,11.79-.84,2.27,1.73,5.5,2.01,7.58l1.85,13.56c.46,3.35,6.12,5.14,8.37,7.73l9.25,10.67c2.11,2.43,3.2,7.66,6.74,9.11s7.91-2.65,6.69-6.72c5.8-6.8,3.75-14.48,6.14-22.72l.28,174.96c0,2.6.71,3.49,1.47,4.61Z"/>
      <path class="cls-46" d="M1002.4,629.73c-7.29,14.68-19.69,25.01-34.41,33.26l-64.96,36.39c-2.09,1.17-3.82,2.01-5.41,2.85-3.85.54-4.04-1.68-2.03-4.82-12.2-7.47-21.61-20.17-29.28-32.02-3.75-.84-5.32-2.71-4.7-5.59l17.09-10.11,57.92-33.08,8.65-7.76c1.86-.67,4.22-3.98,7.09-9.91,1.77-2.68,2.37-5.38,1.82-8.11.49-1.77-.61-4.68,1.58-6.16-.12,1.54-.59,3.59,1.05,4.91,1.07-1.95.72-5.43,1.6-6.45l7.65-8.8c7.07,3.07-1.59,7.18,4.99,16.23,2.55,3.51,5.16,4.54,8.8,6.35,3.61,1.79,3.8,8.11,4.75,11.57,1.84,6.75,11.54,8.27,15.27,16.39.77,1.68.61,4.07,2.52,4.86Z"/>
      <path class="cls-15" d="M897.62,702.23l-115.17,64.81c-2.33,1.31-5.36.1-6.69-1.09-.9-.8-2.14-2.47-2.13-4.66l.09-37.44c.02-8.64,4.73-17.45,12.37-21.78l70.55-40,4.97-2.27,6.7,3.45c3.74,5.12,6.02,10.78,11.06,14.66,2.67,2.05,4,4.91,5.97,7.48,4.96,6.44,15.27,10.66,15.14,12.41-.09,1.18-5.43,2.11-2.86,4.43Z"/>
      <path class="cls-46" d="M1009.9,610.15c-.18,1.2-.1,2.56-1.38,3.18-2.25-2.72-1.17,1.91-3.45,3.71-.37.3-1,1.06-1.47-.48-4.5-3.75-3.81-12.17,1.19-13.79,3.94-1.27,2.49,6.14,5.11,7.37Z"/>
      <path class="cls-40" d="M945.27,608.84c4.01-5.38,7.08-11.41,8.91-18.02,4.31,1.65-2.13,10.95-7.47,19.19-.85-.24-1.23-.79-1.44-1.16Z"/>
    </g>
    <g>
      <path class="cls-20" d="M241.56,429.56l2.99,1.03-.02,59.5c5.02,1.28,8.66,4.89,10.92,10.85,12.56,7.95,21.19,18.37,28.57,31,4.4,0,7.72,1.32,9.97,3.95,1.51,10.91,2.46,21.79,2.85,32.64l.2,14.91c.2,14.9,9.54,28.1,22.61,35.53l41.91,23.83c2.62,4.03,5.37,8.24,8.26,12.62-1.57,5.51-2.9,10.93-4,16.27,6.83,1.58,11.47,4.84,13.92,9.79,8.19,4.92,13.15,10.55,12.81,20.4,9.16,9.43,9.77,16.18,1.83,20.27-4.77-2.02-9.25-3.69-13.44-5.01-1-.56-1.78-1.43-2.29-1.7-2.32-3-7.31-5.34-8.75-4.65l-20.31-11.2-70.73-39.9c-24.09-13.59-38.03-39.31-38.41-67.09l-.3-21.39-.13-317.78,1.08-4.89,2.99,1.03c.08,31.3.16,62.8.24,94.51l-2.01,2.01c.45,28.09.2,55.92-.76,83.49Z"/>
      <path class="cls-60" d="M297.58,258.23l-.82,17.56v150.83c-2.06.7-3.83.69-4.13-1.41.69-12.09-.82-23.34-4.54-33.75-11.09-6.45-18.72-11.14-23.12-23.85-4.37-6.77-10.52-12.25-18.44-16.43l-.49,75.25c.01,2.95-1.5,3.87-4.48,3.13l-.46-181.04c.51-12.35,5.17-24.15,11.92-34.39,6.17-5.39,19.98-6.02,26.41-1.31,6.02,4.41,23.11,36.59,18.15,45.41Z"/>
      <path class="cls-2" d="M296.77,426.61l.07,141.92c-1.43-.43-1.78-2.4-1.64-4.36.75-10.14-.22-19.32-4.41-28.24l-6.81-.92c-3.06-.41-3.93-4.19-5.46-6.28l-5.15-7.07c-1.85-2.54-3.92-6.23-6.49-8.2l-9.19-7.05c-3.1-2.37-5.32-3.28-6.79-7.27-1.12-3.03-3.66-6.29-7.75-6.25l-.28,81.7c-.43.15-1.35-.35-1.36-.83l.04-144.2c1.23-.89,1.53-2.23,1.54-4.39l.21-80.67,9.55,8.15,6.01,2.49c6.44,5.68,9.73,12.6,13.38,20.12,4.38,9.04,16.01,9.6,18.81,15.4,1.93,3.99,3.67,8.98,3.77,13.54l.4,18.03c.05,2.11.53,3.47,1.55,4.4Z"/>
      <path class="cls-34" d="M382.38,194l-65.37,37.49c-10.22,5.86-15.95,16.51-19.43,26.74.16-3.38-3.4-14.99-6.95-21.27l-6.44-11.38c-2.44-4.32-4.48-9.2-8.87-12.35l-11.32-.39c-8.26-.28-10.05,4.31-10.98,1.28,6.16-9.36,13.89-17.77,24.48-23.77l77.3-43.81,2.18.32c7.32-5.53,16.82-9.66,15.52,3.91,7.95,4.96,12.3,10.15,15.68,18.69,12.33,10.97,4.07,18.47-4.72,23.33l-1.07,1.21Z"/>
      <path class="cls-27" d="M382.38,194c-1.57-.79-1.31-2.28.34-2.41l7.66-4.54c-1.1-2.77-.45-5.17,2.61-7.31l-6.4-7.45c-3.19-3.71-3.91-9.47-7.7-12.98-2.71-2.51-8.04-4.6-9.61-8.13-.11-1.38,1.4-4.72-.23-6.19-4.47-4.05-10.44,2.85-11.96,3.36-.7.23-1.92-.79-2.29-1.82l12.27-7.06,75.18-42.64,26.94-15.08c2-1.12,3.89-1.65,5.58-1.09,1.84.61,4.25,2.62,4.25,5.32l-.04,40.22c-.01,9.94-6.86,17.39-15.2,22.09l-71.52,40.28-9.85,5.42Z"/>
      <path class="cls-58" d="M380.94,717.12c-.86-1.04-.07-2.21.34-2.05,3.04,1.2,10.22,8.09,15.22,2.1,3.86-4.63-7.64-11.01-7.23-16.81.63-8.95-4.84-11.86-11.04-16.27-2.48-1.76-2.95-8.04-8.74-7.63-2.25.16-5.43-1.78-6.29-3.42-3.36-6.4,5.93-13.94,3.5-17.53l-6.69-9.88c-.85-1.44-.18-2.64,1.55-2.86l86.78,49.1,13.67,7.32c10.51,5.62,16.51,15.58,16.42,27.74l-.24,34.38c-.02,2.2-1.11,4.35-2.12,5.16s-4.03,1.77-5.86.75l-89.27-50.11Z"/>
      <path class="cls-58" d="M378.65,715.42l-8.75-4.65c-.16-.87.39-1.77,1.21-1.66,1.74,1.5,3.17,2.05,5.04,2.81,1.95.63,2.73,2.13,2.51,3.5Z"/>
    </g>
  </g>
  <g>
    <path class="cls-10" d="M981.13,930.81c-.78,42.21-1.11,84.64-.99,127.29l-.87,1.02-43.17-.18-.11-171.53,44.96.11.18,43.3Z"/>
    <path class="cls-57" d="M984.56,822.81c3.52,9.52,2.13,18.87-3.54,26.65-4.54,6.22-12.73,10.45-22.2,10.64-15.14.31-27.1-10.71-28.24-24.91-1.21-15.13,9.42-27.87,25.28-29.37,12.14-1.15,24.23,4.92,28.7,16.99Z"/>
    <path class="cls-24" d="M979.27,1059.11l.5-127.31c0-1.18.86-1.73,1.36-1l.2,126.26c0,1.26-1.11,2.04-2.06,2.04Z"/>
  </g>
  <g>
    <path class="cls-49" d="M1088.86,924.34c-1.25,27.27-1.4,56.11.1,83.61,2.22,13.94,17.61,19.24,30.41,15.73l14.03-3.84,8.78,32.87c-22.67,12.29-56.65,13.75-76.55.71-14.29-9.36-21.73-26.68-21.82-44.14l-.47-84.99h-31.9s.46-36.71.46-36.71c9.83-.4,19.59-.21,29.28.55.54.08,2.32-.64,2.33-1.72l.05-46.35,44.79.06.07,47.38,49.28.06.22,36.81-49.05-.02Z"/>
    <path class="cls-6" d="M1088.96,1007.95c-.83-.97-1.7-2.07-1.7-4.49l.1-77.83c-.08-1.26.86-1.48,1.5-1.29l.1,83.61Z"/>
    <path class="cls-28" d="M1041.17,888.13l-29.28-.55,26.23-.81c1.55-.05,2.8.5,3.05,1.36Z"/>
  </g>
  <path class="cls-50" d="M824.68,889.38l-21.09,20.01-20.06,19.09,104.47,121.6,6.92,8.84-61.04-.03-51.88-62.41-32.02-37.67-37.05,34.23-.03,65.94-47.91.09-.06-229.85,48.12.02-.14,108c2.09.01,3.3-1.46,4.92-3.02l34.3-32.94,35.86-34.39,39.65-37.76,60.27.27-15.3,14.56-23.73,22.59-24.21,22.83Z"/>
  <path class="cls-44" d="M593.74,990.37l30.34,31.97c-23.66,24.68-53.65,36.9-87.26,40.19-58.28,5.71-116.26-11.88-143.63-65.79-14.43-28.42-15.81-65.88-4.61-95.87,4.72-12.64,11.56-23.41,20.38-33.46,44.92-51.21,137.05-56.18,192.78-19.61,7.97,5.23,15,10.54,21.26,18.12l-29.38,31.55-21.89-16.69c-27.65-15.06-60.16-18.28-90.01-8.02-20.14,6.92-36.78,20.38-45.06,40.21-9.04,21.64-8.01,46.6,2.8,67.38,19.72,37.9,69.53,46.93,109.94,36.61,16.96-4.61,31.11-12.95,44.34-26.6Z"/>
  <path class="cls-36" d="M214.03,1008.97l-24.86-.09c-2.31,0-3.95,1.31-4.52,3.43l-20.91,46.65-51.79.04,41.18-85.65,27.33-56.44,24.43-50.34,17.76-37.34,47.65-.12,42.84,89.36,66.72,140.48-51.64.14-22.73-50.03-91.46-.07ZM287.7,969.57l-41.26-90.4-10.64,21.54-31.29,68.66,83.2.21Z"/>
</svg>